<?xml version="1.0" standalone="no"?>
<!DOCTYPE svg PUBLIC "-//W3C//DTD SVG 20010904//EN"
 "http://www.w3.org/TR/2001/REC-SVG-20010904/DTD/svg10.dtd">
<svg version="1.0" xmlns="http://www.w3.org/2000/svg"
 width="654.000000pt" height="287.000000pt" viewBox="0 0 654.000000 287.000000"
 preserveAspectRatio="xMidYMid meet">

<g transform="translate(0.000000,287.000000) scale(0.100000,-0.100000)"
fill="#05B6D3" stroke="none" stroke-width="10">
<path d="M3718 2083 c-47 -51 -87 -127 -127 -248 -51 -149 -91 -325 -91 -399
0 -51 4 -61 30 -88 25 -25 36 -29 61 -24 39 8 92 52 96 80 2 11 27 43 56 69
50 47 49 47 -12 -5 -122 -102 -144 -118 -167 -118 -48 0 -45 95 5 157 62 78
203 411 217 511 5 43 3 56 -11 72 -23 26 -26 25 -57 -7z m42 -11 c0 -8 -32
-136 -44 -177 -4 -11 0 -6 8 10 26 53 17 8 -14 -70 -37 -93 -76 -171 -90 -180
-6 -4 3 20 19 52 16 32 36 75 45 97 34 81 13 46 -54 -91 -38 -79 -71 -143 -74
-143 -7 0 2 49 21 119 8 29 16 59 18 65 1 6 5 18 8 26 3 8 23 62 43 119 37
100 83 181 104 181 6 0 10 -4 10 -8z"/>
<path d="M4728 2083 c-9 -10 -27 -49 -39 -88 -12 -38 -24 -72 -26 -74 -1 -2
-11 3 -21 12 -26 24 -70 21 -161 -9 -94 -31 -277 -127 -273 -144 1 -6 -2 -9
-7 -6 -12 7 -61 -50 -62 -72 -4 -59 24 -95 111 -145 30 -17 74 -50 97 -74 49
-49 56 -88 24 -137 -46 -69 -158 -129 -204 -109 -18 8 -17 11 16 43 20 18 33
38 30 43 -3 6 -1 7 5 3 6 -3 27 9 47 28 l37 35 -29 -8 c-41 -12 -110 -57 -123
-80 -17 -33 -12 -89 9 -100 53 -29 212 68 242 147 14 35 0 98 -31 141 -16 21
-69 65 -119 97 -50 33 -93 67 -96 76 -9 26 21 64 87 108 114 76 244 128 342
137 57 6 58 6 51 -17 -6 -18 -4 -22 7 -18 9 4 14 -1 14 -12 0 -10 -5 -16 -10
-13 -5 4 -7 -3 -4 -15 4 -12 2 -20 -3 -16 -5 3 -9 1 -9 -4 0 -4 -24 -13 -52
-18 -36 -6 -53 -14 -53 -24 0 -12 11 -14 53 -12 52 3 62 -4 40 -26 -7 -7 -8
-12 -2 -12 5 0 3 -4 -4 -8 -7 -5 -15 -26 -17 -48 -3 -21 -8 -52 -11 -69 -3
-16 -6 -37 -8 -45 -2 -8 -8 -33 -15 -56 -8 -25 -12 -77 -10 -137 4 -86 7 -99
28 -119 22 -21 23 -21 15 -3 -4 11 -10 60 -12 108 -3 85 -2 91 33 164 20 42
51 119 68 170 l30 93 96 2 96 2 -70 6 -70 6 75 4 75 4 -62 3 c-35 2 -79 0 -98
-6 -40 -11 -39 -17 -7 99 27 101 37 170 26 188 -15 23 -28 25 -46 5z m3 -128
c-25 -92 -26 -107 -1 -40 27 74 24 42 -5 -45 -13 -41 -22 -59 -19 -40 l5 35
-17 -35 c-42 -89 -12 62 39 194 20 54 19 8 -2 -69z m-76 -245 c-9 -28 -15 -53
-12 -56 2 -2 12 22 23 53 10 32 20 50 22 41 5 -24 -46 -135 -62 -135 -9 0 -8
16 6 66 23 85 27 95 34 88 3 -3 -2 -29 -11 -57z"/>
<path d="M2530 1924 c0 -5 -19 -11 -42 -12 -99 -4 -180 -15 -168 -22 6 -4 28
-4 49 0 53 11 138 12 145 2 3 -5 -20 -15 -52 -22 -54 -12 -56 -13 -27 -21 29
-8 52 -6 113 13 24 7 32 15 32 33 0 27 -15 41 -26 24 -4 -8 -9 -7 -15 2 -5 8
-9 9 -9 3z"/>
<path d="M2150 1880 c0 -6 -10 -15 -22 -20 -19 -7 -20 -9 -4 -9 13 -1 16 -6
11 -18 -29 -72 -74 -220 -70 -231 3 -7 1 -11 -4 -8 -12 8 -23 -38 -14 -60 5
-12 3 -15 -6 -9 -10 6 -11 2 -6 -15 5 -16 4 -20 -5 -15 -9 5 -10 1 -5 -15 5
-15 4 -20 -4 -16 -6 4 -10 40 -10 87 1 107 -31 177 -91 204 -23 10 -37 22 -33
26 4 4 35 14 67 24 43 12 56 19 45 25 -8 6 -15 6 -17 0 -2 -6 -11 -10 -20 -10
-15 0 -15 2 -2 11 12 9 11 10 -5 4 -11 -4 -51 -13 -90 -19 -68 -13 -135 -39
-135 -54 0 -4 4 -14 10 -22 8 -12 14 -12 45 3 61 29 130 19 162 -22 36 -46 56
-204 37 -305 -10 -58 -35 -159 -50 -203 -14 -40 -14 -47 -1 -60 13 -13 19 -3
50 93 19 60 44 143 56 184 39 132 112 343 136 394 13 28 22 53 19 58 -7 12
-44 10 -44 -2z"/>
<path d="M2246 1882 c-3 -5 8 -6 25 -4 16 2 29 6 29 8 0 8 -49 4 -54 -4z"/>
<path d="M2078 1843 c7 -3 16 -2 19 1 4 3 -2 6 -13 5 -11 0 -14 -3 -6 -6z"/>
<path d="M4916 1781 c-4 -5 3 -7 14 -4 23 6 26 13 6 13 -8 0 -17 -4 -20 -9z"/>
<path d="M3052 1598 c-5 -7 -36 -61 -67 -120 -31 -60 -59 -108 -62 -108 -2 0
-1 35 2 78 6 63 4 80 -8 90 -13 11 -16 0 -27 -85 -14 -112 -12 -142 12 -157
13 -8 23 -5 43 14 14 13 25 28 25 32 0 5 27 65 60 132 33 68 60 126 60 130 0
11 -27 6 -38 -6z m-7 -58 c-14 -27 -28 -50 -30 -50 -3 0 6 23 20 50 14 28 28
50 30 50 3 0 -6 -22 -20 -50z m-54 -103 c-10 -9 -11 -8 -5 6 3 10 9 15 12 12
3 -3 0 -11 -7 -18z"/>
<path d="M3246 1547 c-50 -48 -70 -99 -56 -143 8 -22 20 -36 35 -40 24 -6 95
21 95 37 0 4 16 16 35 25 20 9 34 18 32 20 -5 5 -101 -37 -105 -45 -1 -4 -18
-5 -38 -3 -31 4 -35 7 -32 30 2 20 10 26 33 29 42 6 97 60 93 93 -5 40 -47 39
-92 -3z m64 5 c0 -5 -15 -19 -32 -32 l-33 -23 29 33 c28 30 36 37 36 31z"/>
<path d="M2395 1560 c-4 -6 -11 -8 -16 -4 -6 3 -32 -16 -59 -44 l-49 -51 1 30
c1 32 -6 44 -20 35 -13 -8 -34 -115 -30 -151 5 -47 33 -44 59 7 35 70 86 133
123 153 19 10 33 23 30 27 -7 11 -32 10 -39 -2z m-35 -23 c0 -2 -15 -16 -32
-33 l-33 -29 29 33 c28 30 36 37 36 29z"/>
<path d="M5245 1560 c-3 -5 -12 -7 -19 -4 -8 3 -17 0 -22 -7 -5 -8 -3 -10 6
-4 8 5 11 4 6 -3 -4 -6 -13 -9 -20 -6 -14 5 -59 -43 -51 -56 2 -3 -2 -7 -10
-7 -9 0 -15 10 -15 23 0 22 -16 41 -26 31 -2 -2 -11 -36 -19 -76 -16 -73 -8
-117 17 -109 6 2 30 35 54 74 23 38 62 85 87 105 25 20 43 40 40 43 -9 9 -21
7 -28 -4z"/>
<path d="M4814 1550 c-26 -10 -64 -85 -64 -127 0 -31 21 -63 41 -63 21 0 48
21 68 54 16 25 31 36 57 41 41 7 114 43 114 55 0 4 -30 -3 -67 -16 l-68 -23
-3 29 c-4 36 -45 62 -78 50z m44 -47 c-2 -22 -9 -29 -30 -31 -23 -3 -27 0 -21
15 17 49 56 61 51 16z m-43 -57 c19 -14 19 -15 1 -35 -35 -38 -54 -25 -40 27
7 26 13 27 39 8z"/>
<path d="M2560 1537 c-28 -14 -87 -96 -97 -135 -8 -33 9 -58 38 -54 13 1 44
20 69 40 62 52 75 60 67 38 -10 -26 3 -64 23 -71 27 -8 81 21 74 40 -5 11 -11
12 -24 5 -10 -6 -27 -10 -37 -10 -15 0 -18 7 -15 45 3 36 1 45 -12 45 -10 0
-16 9 -16 25 0 14 -8 29 -19 35 -24 12 -21 12 -51 -3z m-1 -105 c-23 -21 -49
-41 -57 -46 -25 -14 30 74 63 102 l30 25 3 -22 c3 -16 -8 -33 -39 -59z m-87
-113 c-11 -22 -23 -40 -25 -40 -3 0 4 18 15 40 11 22 23 40 25 40 3 0 -4
-18 -15 -40z"/>
<path d="M5446 1490 c-38 -33 -71 -58 -72 -57 -2 2 2 20 8 40 9 28 9 40 0 49
-15 15 -19 11 -34 -45 -13 -51 -5 -79 24 -85 9 -2 41 21 73 50 l57 52 -5 -74
c-4 -41 -8 -111 -11 -155 -7 -112 -42 -282 -77 -378 -17 -45 -31 -90 -32 -99
-1 -9 -6 -16 -12 -15 -5 1 -10 -8 -10 -20 0 -11 -4 -25 -8 -29 -4 -5 -5 0 -1
11 6 18 4 17 -19 -4 -15 -13 -24 -28 -20 -34 3 -6 1 -7 -4 -4 -6 4 -27 0 -47
-8 -42 -18 -49 -19 -41 -5 3 5 -1 10 -9 10 -33 0 -38 37 -17 120 35 139 90
233 261 442 19 24 27 37 17 29 -22 -17 -23 2 -1 24 9 9 14 19 10 22 -3 4 -10
2 -15 -3 -146 -165 -205 -248 -263 -371 -64 -131 -63 -237 2 -283 34 -24 58
-25 105 -3 97 46 189 297 211 575 4 46 11 88 15 94 5 6 6 14 2 18 -4 3 2 13
13 21 18 14 18 14 1 15 -17 0 -18 8 -16 77 2 44 0 78 -6 79 -6 2 -41 -24 -79
-56z m-69 -314 c-73 -97 -118 -136 -53 -47 20 26 33 51 31 55 -3 3 -2 4 1 2 3
-2 24 16 46 40 22 24 42 44 44 44 2 0 -29 -42 -69 -94z m-87 -113 c0 -5 -10
-19 -21 -33 l-21 -25 18 33 c18 32 24 38 24 25z m-60 -103 c-11 -22 -23 -40
-25 -40 -3 0 4 18 15 40 11 22 23 40 25 40 3 0 -4 -18 -15 -40z"/>
<path d="M5640 1474 c-73 -60 -86 -74 -74 -74 6 0 29 16 51 35 23 19 44 35 48
35 6 0 -30 -28 -80 -61 -50 -33 -93 -57 -102 -54 -10 3 5 28 33 55 17 26
38 55 49 63 11 8 38 21 60 28z"/>
<path d="M3029 1439 c-9 -6 -14 -13 -13 -24 0 -15 5 -22 13 -25 7 -2 17 3 20
9 3 6 9 20 12 32 3 12 7 21 12 21 5 0 12 -9 16 -21 3 -12 0 -22 -7 -24z"/>
</g> 

</svg>
